<svg width="440" height="712" viewBox="0 0 440 712" fill="none" xmlns="http://www.w3.org/2000/svg">
<path d="M440 608.227L375.833 684.429C370.199 682.121 367.613 680.382 367.321 673.919C368.76 670.537 369.187 668.991 375.833 660.78C382.777 634.434 385.857 626.305 391.547 610.198L413.809 597.716C414.922 595.203 415.887 593.964 419.047 592.461C432.595 597.669 435.672 601.388 440 608.227Z" fill="#D9DDDD"/>
<path d="M100.834 711.363H2.61924C0.384528 706.198 0.737001 703.266 3.92877 699.539L6.54782 698.225C11.8543 697.91 14.8459 697.77 20.2978 697.568C38.6316 688.852 48.6978 684.568 66.7859 676.547C68.2938 677.106 68.9244 677.963 69.4049 681.145C80.7144 690.173 85.2294 686.651 94.2859 685.086C95.7471 684.911 96.5457 684.762 98.2145 685.086C99.697 687.937 100.36 689.748 100.834 692.97C102.711 698.814 102.128 703.256 100.834 711.363Z" fill="#E4E4E4"/>
<path d="M70.0596 681.802C71.6079 674.537 72.5809 670.844 74.6429 665.379L75.9524 662.094L100.179 665.379L99.5239 668.007C97.474 675.507 96.1337 679.472 93.631 686.4C82.758 688.735 77.0124 689.18 70.0596 681.802Z" fill="white"/>
<path d="M176.786 675.89L68.0952 664.065L145.357 305.387H162.381L206.25 513.63L176.786 675.89Z" fill="#69A1AC"/>
<path d="M391.548 609.541C383.199 604.707 378.2 601.442 371.25 597.059C377.933 587.744 381.854 583.596 388.929 576.695C397.946 582.836 403.849 587.704 413.81 597.716C406.633 611.682 401.92 615.257 391.548 609.541Z" fill="white"/>
<path d="M269.762 305.387H159.762C164.83 389.936 170.005 430.726 187.917 478.814C197.56 515.064 227.208 553.843 322.798 655.525L394.167 570.782L277.619 442.683C274.297 394.565 272.592 364.051 269.762 305.387Z" fill="#89C5CC"/>
<path d="M58.9286 323.781L43.2144 304.073C118.512 242.979 128.084 175.595 185.298 117.508C179.944 182.49 166.485 222.423 134.881 296.19C105.364 315.621 88.7442 321.951 58.9286 323.781Z" fill="#E87613"/>
<path d="M55.6548 319.839L43.869 305.387C14.3493 315.629 0.160501 320.983 0 326.408V329.036H26.1905C29.4715 330.52 30.1049 331.911 28.8095 335.605C25.7441 339.151 24.8039 340.962 26.1905 343.488C29.3466 345.463 31.552 342.956 35.3571 339.547C43.2828 331.934 47.7269 327.625 55.6548 319.839Z" fill="white"/>
<path d="M288.75 341.517H250.774H250.119L266.488 277.796L288.75 341.517Z" fill="#E68C1E"/>
<path d="M193.81 106.997C191.553 107.895 189.334 108.355 184.644 109.625C188.989 190.426 119.822 285.68 137.501 305.387H175.477C176.786 224.586 191.19 178.601 210.833 104.369C207.639 104.141 206.25 105.683 202.321 106.34C198.094 106.765 196.429 106.997 193.81 106.997Z" fill="#DDE3E9"/>
<path d="M250.12 342.173H182.025C166.964 299.474 176.131 225.243 210.834 104.369C212.143 100.429 246.192 106.34 263.87 99.1128C300.537 89.2602 305.775 137.215 272.382 154.951C324.06 231.811 334.154 282.293 335.239 378.961H306.43C287.208 343.525 278.306 322.272 265.18 282.393C261.765 309.33 258.664 322.71 250.12 342.173Z" fill="#FF9B21"/>
<path d="M312.976 385.531C311.856 381.846 310.749 380.576 308.393 378.962H333.929V380.276C350.047 400.976 369.252 412.715 371.905 416.406C363.255 426.376 356.444 429.21 327.381 410.494C324.311 409.7 322.593 409.769 319.524 410.494L310.357 419.691C306.987 420.9 305.718 420.892 305.119 419.034C307.738 412.465 312.736 399.112 312.976 398.987C313.494 398.717 313.535 389.9 312.976 385.531Z" fill="white"/>
<path d="M196.429 91.2309C160.647 111.248 151.905 97.8001 161.726 38.6774C167.843 31.0385 172.458 30.0391 181.369 30.1374C192.639 61.2314 199.25 65.5277 212.143 49.845C220.167 48.6528 223.011 50.4991 223.274 62.9834C220.102 65.3936 217.263 65.693 214.107 70.2095C214.732 71.4273 218.036 70.8664 218.036 70.8664C216.18 87.2241 223.448 91.392 223.274 103.712C218.912 103.08 216.167 103.27 210.834 104.369C203.004 106.544 199.163 107.233 193.81 106.997C195.74 101.163 196.448 97.7579 196.429 91.2309Z" fill="white"/>
<path d="M255.357 85.9752C242.042 94.1185 234.103 94.3107 218.69 83.3479C217.381 82.034 217.367 75.8363 218.036 70.866C215.417 71.5233 214.107 70.8664 214.107 70.2091C216.726 66.2679 219.487 65.2079 223.274 62.9829C222.623 49.9283 219.292 49.9018 212.278 49.846L212.143 49.8449C198.226 68.3626 191.19 58.3849 181.369 30.1373C168.122 31.5401 166.97 34.1333 161.726 38.6773C163.69 21.5974 193.809 -20.4459 230.476 13.7139C234.171 15.1366 236.147 14.7601 239.643 13.7139C253.517 2.01641 260.615 -0.456271 272.381 0.575545C301.845 9.1159 304.464 39.9911 288.095 51.1584C296.607 73.4941 290.059 87.2894 255.357 85.9752Z" fill="#FFECD1"/>
</svg>
